<svg xmlns="http://www.w3.org/2000/svg" width="61" height="56" fill="none"><g clip-path="url(#a)"><path fill="#fff" fill-rule="evenodd" d="M19.038.241C8.328 2.151 2.105 13.682.444 23.537a31.827 31.827 0 0 0-.398 3.502c-.444 7.811 2.417 16.033 8.052 21.556 5.229 5.125 13.05 7.697 20.3 7.38a26.52 26.52 0 0 0 1.552-.112c15.242-1.539 30.237-16.4 30.407-32.01.023-1.42-.13-2.837-.456-4.219-2.14-8.83-10.728-11.522-18.622-13.998-1.964-.615-3.885-1.218-5.653-1.898-.494-.19-.99-.384-1.488-.578-4.821-1.886-9.858-3.857-15.1-2.92zM17.896 23.32v1.892h3.454v-1.854c0-3.335-2.411-5.617-6.317-5.617-3.905 0-6.32 2.282-6.312 5.617v9.409c0 3.362 2.437 5.645 6.34 5.645s6.29-2.275 6.29-5.645v-5.364h-6.404v3.19h2.954v2.22c0 1.488-1.065 2.386-2.863 2.386s-2.865-.898-2.865-2.387V23.32c0-1.479 1.093-2.386 2.888-2.386 1.796 0 2.835.897 2.835 2.386zm15.165 14.709-2.584-7.667H27.5v7.667h-3.454V18.133h6.29c3.453 0 5.728 2.107 5.728 5.196v1.826c0 1.882-.842 3.398-2.282 4.296l2.9 8.577h-3.62zM27.5 27.148h3.043c1.377 0 2.105-.674 2.105-1.881v-2.05c0-1.207-.728-1.881-2.077-1.881H27.5v5.812zm11.237-3.735c0-3.37 2.382-5.673 6.34-5.673 3.962 0 6.348 2.302 6.34 5.673v9.383c0 3.335-2.386 5.617-6.34 5.617-3.953 0-6.34-2.277-6.34-5.617v-9.383zm6.34-2.47c-2.077 0-2.89.892-2.89 2.414v8.004l4.706-10.063a3.93 3.93 0 0 0-1.816-.355zm0 14.265c2.082 0 2.894-.898 2.894-2.387l.01-7.958-4.679 10.002a3.957 3.957 0 0 0 1.775.343z" clip-rule="evenodd"/></g><defs><clipPath id="a"><path fill="#fff" d="M0 0h60.359v56H0z"/></clipPath></defs></svg>