<svg width="173" height="41" viewBox="0 0 173 41" fill="none" xmlns="http://www.w3.org/2000/svg">
<path fill-rule="evenodd" clip-rule="evenodd" d="M28.2107 39.805H18.5575L11.3188 11.3767C10.9752 10.069 10.2457 8.9129 9.17263 8.36802C6.49459 6.99873 3.54357 5.90898 0.32428 5.35936V4.26487H15.8748C18.021 4.26487 19.6306 5.90898 19.8989 7.81841L23.6547 28.3247L33.3032 4.26487H42.6881L28.2107 39.805ZM48.0534 39.805H38.9368L46.4438 4.26487H55.5604L48.0534 39.805ZM67.355 14.1105C67.6233 12.1964 69.2329 11.1019 71.1109 11.1019C74.0619 10.8271 77.2765 11.3767 79.9592 12.7412L81.5689 5.08929C78.8861 3.9948 75.9351 3.44519 73.2571 3.44519C64.4087 3.44519 57.9701 8.36802 57.9701 15.2003C57.9701 20.3979 62.5308 23.127 65.7501 24.7712C69.233 26.4105 70.5743 27.505 70.3061 29.1444C70.3061 31.6034 67.6233 32.6979 64.9453 32.6979C61.726 32.6979 58.5067 31.8782 55.5604 30.5089L53.9507 38.1656C57.17 39.5302 60.6529 40.0798 63.8722 40.0798C73.7936 40.3499 79.9592 35.4318 79.9592 28.0499C79.9592 18.7538 67.355 18.209 67.355 14.1105ZM111.866 39.805L104.627 4.26487H96.8516C95.242 4.26487 93.6323 5.35936 93.0958 6.99873L79.6915 39.805H89.0764L90.9496 34.6121H102.481L103.554 39.805H111.866ZM98.1927 13.836L100.871 27.2304H93.3637L98.1927 13.836Z" fill="#172B85"/>
<path fill-rule="evenodd" clip-rule="evenodd" d="M139.561 35.6045C136.07 38.5475 131.541 40.3242 126.592 40.3242C115.549 40.3242 106.597 31.4788 106.597 20.5675C106.597 9.65614 115.549 0.81076 126.592 0.81076C131.541 0.81076 136.07 2.58743 139.561 5.53049C143.053 2.58744 147.582 0.810773 152.531 0.810773C163.574 0.810773 172.525 9.65616 172.525 20.5675C172.525 31.4788 163.574 40.3242 152.531 40.3242C147.582 40.3242 143.053 38.5475 139.561 35.6045Z" fill="#ED0006"/>
<path fill-rule="evenodd" clip-rule="evenodd" d="M139.561 35.6046C143.86 31.9808 146.586 26.5887 146.586 20.5675C146.586 14.5462 143.86 9.15412 139.561 5.53037C143.053 2.58738 147.582 0.81076 152.531 0.81076C163.573 0.81076 172.525 9.65614 172.525 20.5675C172.525 31.4788 163.573 40.3242 152.531 40.3242C147.582 40.3242 143.053 38.5476 139.561 35.6046Z" fill="#F9A000"/>
<path fill-rule="evenodd" clip-rule="evenodd" d="M139.561 35.6045C143.86 31.9807 146.586 26.5887 146.586 20.5675C146.586 14.5463 143.86 9.1542 139.561 5.53046C135.262 9.1542 132.536 14.5463 132.536 20.5675C132.536 26.5887 135.262 31.9807 139.561 35.6045Z" fill="#FF5E00"/>
</svg>
