<svg width="177" height="39" viewBox="0 0 177 39" fill="none" xmlns="http://www.w3.org/2000/svg">
<path fill-rule="evenodd" clip-rule="evenodd" d="M176.973 38.7096H175.407V0.664978H176.973V38.7096Z" fill="#231F20"/>
<path fill-rule="evenodd" clip-rule="evenodd" d="M158.03 38.5931H156.464V0.548401H158.03V38.5931Z" fill="#231F20"/>
<path fill-rule="evenodd" clip-rule="evenodd" d="M11.9237 17.5678L13.5004 6.58892L15.0992 17.5678H22.7843L26.5222 0.622589H20.5019L18.848 11.3366L17.2052 0.622589H9.87282L8.21891 11.0504L6.59808 0.622589H0.324249L4.10619 17.5678H11.9237Z" fill="#231F20"/>
<path fill-rule="evenodd" clip-rule="evenodd" d="M29.5323 17.5678H44.8475V13.1593H37.1293V11.1564H44.4065V6.80087H37.1293V4.97812H44.5939V0.622589H29.5323V17.5678Z" fill="#231F20"/>
<path fill-rule="evenodd" clip-rule="evenodd" d="M48.1333 12.1208C48.1112 12.3327 48.1112 12.5447 48.1112 12.7354C48.1112 15.9676 51.1544 17.854 56.899 17.854C62.6436 17.854 65.6427 15.9146 65.6427 12.3327C65.6427 9.24887 63.8344 8.3269 59.3358 6.87505C56.9321 6.09085 55.5318 6.13323 55.5318 4.95692C55.5318 4.32108 55.9508 3.85479 56.9652 3.85479C58.156 3.85479 58.7293 4.60721 58.6742 5.71994H65.1796V5.00991C65.1796 2.02144 62.3679 0.20929 57.1636 0.20929C51.4521 0.20929 48.42 2.33937 48.42 5.66695C48.42 8.05136 49.9526 9.42903 53.1171 10.298C55.4325 10.9339 56.7557 11.4637 57.759 11.8876C58.2883 12.1102 58.4647 12.6188 58.3875 13.0957C58.2883 13.7528 57.8693 14.1555 56.8329 14.1555C55.5538 14.1555 55.19 13.4136 55.19 12.2585V12.1208H48.1443H48.1333Z" fill="#231F20"/>
<path fill-rule="evenodd" clip-rule="evenodd" d="M84.3099 0.622589H67.5502V5.14768H72.2143V17.5678H79.6789V5.14768H84.3099V0.622589Z" fill="#231F20"/>
<path fill-rule="evenodd" clip-rule="evenodd" d="M87.5183 17.5678H102.834V13.1593H95.1153V11.1564H102.326V6.80087H95.1153V4.97812H102.58V0.622589H87.5183V17.5678Z" fill="#231F20"/>
<path fill-rule="evenodd" clip-rule="evenodd" d="M107.498 17.5678H114.83V11.5379C115.073 11.5167 115.315 11.5167 115.503 11.5167C117.267 11.5167 117.52 12.1314 117.807 13.9753L117.994 15.2258C118.105 15.9782 118.314 16.7624 118.568 17.5784H126.01C125.691 16.3279 125.437 15.3212 125.338 14.5582L125.095 12.746C124.764 10.298 123.794 9.37603 121.82 8.99452C123.827 8.51764 125.338 7.0658 125.338 5.0311C125.338 1.63993 123.111 0.633179 117.752 0.633179H107.487V17.5784L107.498 17.5678ZM114.83 7.37312V4.41645C115.161 4.39525 115.425 4.39525 115.668 4.39525C117.322 4.39525 118.05 4.77676 118.05 5.8365C118.05 6.89624 117.123 7.39432 115.37 7.39432C115.205 7.39432 115.017 7.39432 114.83 7.37312Z" fill="#231F20"/>
<path fill-rule="evenodd" clip-rule="evenodd" d="M135.46 7.903L139.396 17.5678H147.919V0.622589H142.164V9.24887L138.911 0.622589H129.693V17.5678H135.46V7.903Z" fill="#231F20"/>
<path fill-rule="evenodd" clip-rule="evenodd" d="M77.1208 28.1122L81.0571 37.777H89.5803V20.8424H83.8136V29.4687L80.561 20.8424H71.3542V37.777H77.1208V28.1122Z" fill="#231F20"/>
<path fill-rule="evenodd" clip-rule="evenodd" d="M135.636 28.1122L139.572 37.777H148.096V20.8424H142.34V29.4687L139.087 20.8424H129.881V37.777H135.636V28.1122Z" fill="#231F20"/>
<path fill-rule="evenodd" clip-rule="evenodd" d="M48.5412 20.8424V31.0477C48.5412 32.9976 48.6736 34.5342 50.2393 35.9967C51.8601 37.5015 54.2086 38.0738 57.5606 38.0738C63.7241 38.0738 66.613 35.8589 66.613 31.0477V20.8424H59.2917V31.3126C59.2917 32.7009 58.6411 33.4533 57.5606 33.4533C56.4249 33.4533 55.8295 32.7433 55.8295 31.3126V20.8424H48.5302H48.5412Z" fill="#231F20"/>
<path fill-rule="evenodd" clip-rule="evenodd" d="M101.885 20.8424H94.3767V37.777H101.885V20.8424Z" fill="#231F20"/>
<path fill-rule="evenodd" clip-rule="evenodd" d="M115.635 38.042C122.317 38.042 125.889 34.9369 125.889 29.1826C125.889 23.4282 122.284 20.3019 115.878 20.3019C109.471 20.3019 105.789 23.5236 105.789 29.2038C105.789 34.884 109.394 38.0314 115.635 38.0314V38.042ZM115.855 24.2442C117.587 24.2442 117.995 25.7172 117.995 28.9176C117.995 32.4995 117.554 34.1315 115.822 34.1315C114.091 34.1315 113.683 32.5313 113.683 29.2673C113.683 25.8444 114.069 24.2442 115.855 24.2442Z" fill="#231F20"/>
</svg>
