<svg width="176" height="41" viewBox="0 0 176 41" fill="none" xmlns="http://www.w3.org/2000/svg">
<path d="M59.6584 27.6825C57.8438 27.6825 56.1501 27.2792 54.6177 26.4727C53.1257 25.6662 51.9159 24.5371 50.9885 23.0451C50.1013 21.553 49.6577 19.8997 49.6577 18.085C49.6577 16.2704 50.1013 14.6171 50.9885 13.1653C51.8756 11.7136 53.0854 10.5845 54.6177 9.73769C56.1501 8.93118 57.8034 8.52792 59.6584 8.52792C61.5134 8.52792 63.1667 8.93118 64.6588 9.73769C66.1911 10.5442 67.4009 11.6733 68.2477 13.1653C69.1349 14.6171 69.5785 16.2704 69.5785 18.085C69.5785 19.8997 69.1349 21.553 68.2477 23.0451C67.3606 24.4968 66.1508 25.6259 64.6588 26.4727C63.1667 27.2792 61.4731 27.6825 59.6584 27.6825ZM59.6584 23.529C61.1908 23.529 62.4409 23.0451 63.3683 22.0369C64.2958 21.0288 64.7797 19.7384 64.7797 18.085C64.7797 16.4317 64.2958 15.101 63.3683 14.1332C62.4409 13.125 61.2311 12.6411 59.6584 12.6411C58.0857 12.6411 56.8356 13.125 55.9081 14.0928C54.9807 15.0606 54.5371 16.3914 54.5371 18.0447C54.5371 19.6981 54.9807 21.0288 55.9081 21.9966C56.8356 23.0451 58.0857 23.529 59.6584 23.529Z" fill="#04111D"/>
<path d="M76.9174 14.738C77.361 14.0525 78.0062 13.4879 78.8127 13.0443C79.6192 12.6008 80.587 12.3991 81.6758 12.3991C82.9662 12.3991 84.0953 12.7217 85.1438 13.3266C86.1923 13.9315 86.9988 14.8186 87.5633 15.9881C88.1682 17.1575 88.4908 18.4883 88.4908 20.0206C88.4908 21.553 88.1682 22.8837 87.5633 24.0532C86.9584 25.2226 86.1519 26.1098 85.1438 26.755C84.0953 27.3598 82.9662 27.6825 81.6758 27.6825C80.6273 27.6825 79.6595 27.4808 78.8127 27.0372C78.0062 26.5937 77.361 26.0694 76.9174 25.3839V31.8763H72.1993V12.6008H76.9174V14.738ZM83.6518 20.0206C83.6518 18.8915 83.3291 18.0044 82.6436 17.3591C81.9984 16.7139 81.1919 16.3913 80.2241 16.3913C79.2563 16.3913 78.4901 16.7139 77.8046 17.3591C77.1594 18.0044 76.8368 18.9318 76.8368 20.061C76.8368 21.1901 77.1594 22.0772 77.8046 22.7628C78.4498 23.408 79.2563 23.7306 80.2241 23.7306C81.1919 23.7306 81.9581 23.408 82.6436 22.7628C83.3291 22.0772 83.6518 21.1901 83.6518 20.0206Z" fill="#04111D"/>
<path d="M105.468 19.8194C105.468 20.263 105.428 20.7065 105.387 21.1501H94.701C94.7817 22.0776 95.0639 22.8035 95.6285 23.2874C96.1931 23.7713 96.8383 24.0132 97.6448 24.0132C98.8142 24.0132 99.661 23.5293 100.105 22.5615H105.145C104.903 23.5293 104.419 24.4165 103.734 25.1826C103.089 25.9488 102.242 26.594 101.234 27.0376C100.226 27.4812 99.0965 27.7231 97.8464 27.7231C96.3544 27.7231 94.9833 27.4005 93.8139 26.7957C92.6444 26.1908 91.7169 25.3036 91.0717 24.1342C90.4265 22.9648 90.0636 21.634 90.0636 20.1016C90.0636 18.5693 90.3862 17.1982 91.0314 16.0691C91.6766 14.8997 92.6041 14.0125 93.7735 13.4076C94.943 12.8028 96.314 12.4801 97.8464 12.4801C99.3788 12.4801 100.669 12.7624 101.839 13.3673C103.008 13.9722 103.895 14.819 104.54 15.9481C105.145 17.0369 105.468 18.3273 105.468 19.8194ZM100.629 18.6096C100.629 17.8434 100.347 17.1982 99.782 16.7546C99.2175 16.3111 98.5319 16.0691 97.7254 16.0691C96.9189 16.0691 96.2737 16.3111 95.7092 16.7546C95.1849 17.1982 94.8623 17.8434 94.701 18.6499H100.629V18.6096Z" fill="#04111D"/>
<path d="M117.364 12.4801C119.179 12.4801 120.59 13.0447 121.679 14.1738C122.768 15.3029 123.292 16.8353 123.292 18.8112V27.4812H118.614V19.4161C118.614 18.408 118.332 17.6418 117.808 17.1176C117.283 16.553 116.558 16.3111 115.67 16.3111C114.783 16.3111 114.057 16.5933 113.533 17.1176C113.009 17.6821 112.727 18.4483 112.727 19.4161V27.4812H107.968V12.6011H112.686V14.5771C113.17 13.9319 113.815 13.4076 114.622 13.0447C115.428 12.6818 116.356 12.4801 117.364 12.4801Z" fill="#04111D"/>
<path d="M133.575 27.6825C132.163 27.6825 130.873 27.4405 129.744 26.997C128.615 26.5534 127.728 25.9082 127.042 25.021C126.397 24.1339 126.034 23.0854 125.994 21.8756H131.034C131.115 22.5612 131.357 23.0854 131.801 23.4886C132.204 23.8516 132.768 24.0129 133.454 24.0129C134.139 24.0129 134.704 23.8516 135.107 23.5693C135.51 23.2467 135.712 22.8031 135.712 22.2789C135.712 21.8353 135.551 21.4321 135.228 21.1498C134.906 20.8675 134.502 20.5852 134.059 20.4239C133.615 20.2223 132.93 20.0207 132.083 19.7384C130.833 19.3755 129.825 19.0125 129.018 18.6093C128.212 18.2463 127.526 17.6818 126.961 16.9559C126.397 16.2301 126.115 15.2623 126.115 14.0928C126.115 12.3588 126.76 10.9878 128.091 10.02C129.381 9.01183 131.115 8.52792 133.212 8.52792C135.309 8.52792 137.083 9.01183 138.374 10.02C139.664 10.9878 140.39 12.3588 140.47 14.1332H135.349C135.309 13.5283 135.067 13.0444 134.664 12.7218C134.26 12.3588 133.696 12.1975 133.051 12.1975C132.486 12.1975 132.002 12.3588 131.68 12.6411C131.317 12.9234 131.155 13.3266 131.155 13.8912C131.155 14.4961 131.438 14.98 132.042 15.3026C132.647 15.6252 133.534 15.9881 134.785 16.3914C136.035 16.7946 137.043 17.1979 137.809 17.5608C138.615 17.9237 139.301 18.4883 139.866 19.1738C140.43 19.8997 140.712 20.7868 140.712 21.916C140.712 22.9644 140.43 23.9322 139.866 24.8194C139.301 25.7065 138.495 26.3921 137.446 26.9163C136.317 27.4405 135.067 27.6825 133.575 27.6825Z" fill="#04111D"/>
<path d="M158.093 19.8194C158.093 20.263 158.052 20.7065 158.012 21.1501H147.326C147.406 22.0776 147.689 22.8035 148.253 23.2874C148.818 23.7713 149.463 24.0132 150.269 24.0132C151.439 24.0132 152.286 23.5293 152.729 22.5615H157.77C157.528 23.5293 157.044 24.4165 156.359 25.1826C155.713 25.9488 154.866 26.594 153.858 27.0376C152.85 27.4812 151.721 27.7231 150.471 27.7231C148.979 27.7231 147.608 27.4005 146.438 26.7957C145.269 26.1908 144.342 25.3036 143.696 24.1342C143.051 22.9648 142.688 21.634 142.688 20.1016C142.688 18.5693 143.011 17.1982 143.656 16.0691C144.301 14.8997 145.229 14.0125 146.398 13.4076C147.568 12.8028 148.939 12.4801 150.471 12.4801C152.003 12.4801 153.294 12.7624 154.463 13.3673C155.633 13.9722 156.52 14.819 157.165 15.9481C157.77 17.0369 158.093 18.3273 158.093 19.8194ZM153.253 18.6096C153.253 17.8434 152.971 17.1982 152.407 16.7546C151.842 16.3111 151.157 16.0691 150.35 16.0691C149.544 16.0691 148.898 16.3111 148.334 16.7546C147.81 17.1982 147.487 17.8434 147.326 18.6499H153.253V18.6096Z" fill="#04111D"/>
<path d="M159.666 20.0206C159.666 18.4883 159.948 17.1575 160.553 15.9881C161.158 14.8186 161.964 13.9315 163.013 13.3266C164.061 12.7217 165.19 12.3991 166.481 12.3991C167.569 12.3991 168.497 12.6008 169.344 13.0443C170.19 13.4879 170.795 14.0121 171.239 14.738V12.6411H175.957V27.5211H171.239V25.4242C170.795 26.1098 170.15 26.6743 169.303 27.1179C168.497 27.5615 167.529 27.7631 166.44 27.7631C165.19 27.7631 164.061 27.4405 163.013 26.8356C161.964 26.1904 161.158 25.3033 160.553 24.1338C159.948 22.9241 159.666 21.553 159.666 20.0206ZM171.199 20.0609C171.199 18.9318 170.876 18.0447 170.19 17.3591C169.545 16.7139 168.739 16.3913 167.811 16.3913C166.884 16.3913 166.077 16.7139 165.392 17.3591C164.747 18.0044 164.424 18.8915 164.424 20.0206C164.424 21.1497 164.747 22.0772 165.392 22.7224C166.037 23.3676 166.843 23.6902 167.811 23.6902C168.779 23.6902 169.545 23.3676 170.19 22.7224C170.876 22.1175 171.199 21.1901 171.199 20.0609Z" fill="#04111D"/>
<path d="M41.0279 20.2225C41.0279 31.3523 31.995 40.3852 20.8652 40.3852C9.7354 40.3852 0.702515 31.3523 0.702515 20.2225C0.702515 9.09267 9.7354 0.0597763 20.8652 0.0597763C31.995 0.0597763 41.0279 9.09267 41.0279 20.2225Z" fill="#2081E2"/>
<path d="M10.6628 20.9078L10.7435 20.7868L15.9858 12.6008C16.0664 12.4798 16.2277 12.4798 16.3084 12.6411C17.1956 14.617 17.9214 17.0366 17.5988 18.5689C17.4375 19.2141 17.0342 20.061 16.5503 20.8272C16.51 20.9481 16.4294 21.0691 16.3487 21.1498C16.3084 21.1901 16.2681 21.2304 16.1874 21.2304H10.7838C10.6628 21.1901 10.5822 21.0288 10.6628 20.9078Z" fill="white"/>
<path d="M34.0113 22.4406V23.7311C34.0113 23.8117 33.9709 23.852 33.8903 23.8924C33.487 24.0537 32.0756 24.6989 31.5111 25.5054C30.019 27.562 28.8899 30.5057 26.3898 30.5057H15.8648C12.1549 30.5057 9.13049 27.4813 9.13049 23.7311V23.6101C9.13049 23.5294 9.21114 23.4488 9.29179 23.4488H15.2196C15.3406 23.4488 15.4213 23.5697 15.4213 23.6504C15.3809 24.0133 15.4616 24.4166 15.6229 24.7795C15.9858 25.5054 16.7117 25.9086 17.4778 25.9086H20.3813V23.6504H17.5182C17.3569 23.6504 17.2762 23.4891 17.3569 23.3681C17.3972 23.3278 17.4375 23.2875 17.4778 23.2068C17.7601 22.8036 18.1231 22.239 18.5263 21.5535C18.8086 21.1099 19.0505 20.5857 19.2522 20.1018C19.2925 20.0211 19.3328 19.9405 19.3731 19.8195C19.4135 19.6582 19.4941 19.4969 19.5344 19.3759C19.5748 19.2549 19.6151 19.134 19.6554 19.013C19.7361 18.6097 19.7764 18.1661 19.7764 17.6822C19.7764 17.5209 19.7764 17.3193 19.7361 17.1177C19.7361 16.9161 19.6957 16.7144 19.6957 16.5128C19.6957 16.3515 19.6554 16.1499 19.6151 15.9886C19.5748 15.7063 19.5344 15.4643 19.4538 15.1821L19.4135 15.1014C19.3731 14.9401 19.3328 14.7385 19.2522 14.5772C19.0909 14.0126 18.8892 13.4481 18.6876 12.9642C18.607 12.7625 18.5263 12.5609 18.4457 12.3593C18.3247 12.077 18.2037 11.7947 18.0827 11.5528C18.0424 11.4318 17.9618 11.3512 17.9214 11.2302C17.8811 11.1092 17.8005 10.9882 17.7601 10.8672L17.6392 10.6253L17.2762 9.98009C17.2359 9.89944 17.3165 9.77846 17.3972 9.81879L19.6151 10.4237L19.8974 10.5043L20.22 10.585L20.341 10.6253V9.29456C20.341 8.64935 20.8652 8.12512 21.4701 8.12512C21.7927 8.12512 22.0749 8.2461 22.2766 8.44772C22.4782 8.64935 22.5992 8.93163 22.5992 9.25423V11.1899L22.8411 11.2705C22.8411 11.2705 22.8815 11.2705 22.8815 11.3108C22.9218 11.3512 23.0024 11.4318 23.1234 11.5125C23.2041 11.5931 23.2847 11.6738 23.4057 11.7544C23.6073 11.9157 23.8896 12.1577 24.1719 12.3996C24.2525 12.4803 24.3332 12.5206 24.3735 12.6012C24.7364 12.9238 25.1397 13.3271 25.5429 13.7707C25.6639 13.8917 25.7446 14.0126 25.8655 14.1336C25.9865 14.2546 26.0672 14.4159 26.1881 14.5369C26.3091 14.6982 26.4704 14.8998 26.5914 15.0611C26.6317 15.1417 26.7124 15.2224 26.7527 15.3434C26.914 15.5853 27.035 15.8273 27.1963 16.0692C27.2366 16.1902 27.3172 16.3112 27.3576 16.4322C27.5189 16.7548 27.6399 17.0774 27.6802 17.4403C27.7205 17.5209 27.7205 17.6016 27.7205 17.6419C27.7608 17.7226 27.7608 17.8435 27.7608 17.9645C27.8012 18.3274 27.7608 18.6501 27.7205 19.013C27.6802 19.1743 27.6398 19.2953 27.5995 19.4566C27.5592 19.5775 27.5189 19.7388 27.4382 19.9001C27.3172 20.1824 27.1559 20.4647 26.9946 20.747C26.9543 20.8276 26.8737 20.9486 26.793 21.0696C26.7124 21.1905 26.6317 21.2712 26.5914 21.3922C26.5107 21.5132 26.3898 21.6341 26.3091 21.7551C26.2285 21.8761 26.1478 21.9971 26.0268 22.118C25.9059 22.2793 25.7446 22.4406 25.6236 22.6019C25.5429 22.6826 25.4623 22.8036 25.3413 22.8842C25.2607 22.9649 25.18 23.0858 25.059 23.1665C24.938 23.2875 24.8171 23.4084 24.6961 23.4891L24.4541 23.6907C24.4138 23.7311 24.3735 23.7311 24.3332 23.7311H22.5589V25.9893H24.7767C25.2607 25.9893 25.7446 25.828 26.1075 25.5054C26.2285 25.3844 26.793 24.9005 27.4785 24.1746C27.5054 24.1477 27.5323 24.1343 27.5592 24.1343L33.6887 22.36C33.9306 22.239 34.0113 22.3197 34.0113 22.4406Z" fill="white"/>
</svg>
