<svg width="182" height="35" viewBox="0 0 182 35" fill="none" xmlns="http://www.w3.org/2000/svg">
<path d="M160.518 17.9112C159.58 17.2931 158.535 16.8455 157.555 16.2913C156.915 15.9289 156.233 15.6198 155.69 15.1616C154.752 14.3836 154.944 12.8702 155.924 12.2095C157.342 11.2716 159.676 11.7938 159.921 13.7122C159.921 13.7548 159.963 13.7761 160.006 13.7761H162.137C162.191 13.7761 162.233 13.7335 162.223 13.6802C162.116 12.3587 161.594 11.2503 160.656 10.5469C159.75 9.87548 158.727 9.51312 157.64 9.51312C152.002 9.51312 151.491 15.46 154.528 17.3464C154.869 17.5702 157.853 19.0622 158.908 19.7123C159.963 20.3624 160.294 21.5454 159.835 22.4833C159.42 23.3358 158.343 23.9327 157.256 23.8687C156.084 23.8048 155.167 23.1653 154.848 22.1742C154.794 21.993 154.762 21.652 154.762 21.5028C154.762 21.4601 154.72 21.4175 154.677 21.4175H152.365C152.365 21.4175 152.279 21.4601 152.279 21.5028C152.279 23.176 152.695 24.1032 153.835 24.9451C154.901 25.7444 156.063 26.0748 157.267 26.0748C160.422 26.0748 162.052 24.295 162.393 22.4406C162.681 20.6289 162.148 18.9983 160.528 17.9219L160.518 17.9112Z" fill="#161616"/>
<path d="M60.1238 9.82178H57.9816C57.9816 9.82178 57.907 9.85375 57.8964 9.87506L55.9993 16.1203C55.9674 16.2056 55.8608 16.2056 55.8288 16.1203L53.9318 9.87506C53.9318 9.87506 53.8892 9.82178 53.8465 9.82178H50.3189C50.3189 9.82178 50.2336 9.86441 50.2336 9.90704V25.8399C50.2336 25.8399 50.2763 25.9252 50.3189 25.9252H52.6316C52.6316 25.9252 52.7168 25.8826 52.7168 25.8399V13.7331C52.7168 13.6371 52.8554 13.6265 52.8873 13.7011L54.795 19.989L54.9336 20.426C54.9336 20.426 54.9762 20.4792 55.0188 20.4792H56.788C56.788 20.4792 56.8519 20.4473 56.8732 20.426L57.0118 19.989L58.9195 13.7011C58.9514 13.6052 59.09 13.6371 59.09 13.7331V25.8399C59.09 25.8399 59.1326 25.9252 59.1753 25.9252H61.4879C61.4879 25.9252 61.5732 25.8826 61.5732 25.8399V9.90704C61.5732 9.90704 61.5305 9.82178 61.4879 9.82178H60.1344H60.1238Z" fill="#161616"/>
<path d="M125.113 9.82178C125.113 9.82178 125.039 9.85375 125.028 9.87506L123.131 16.1203C123.099 16.2056 122.993 16.2056 122.961 16.1203L121.064 9.87506C121.064 9.87506 121.021 9.82178 120.978 9.82178H117.461C117.461 9.82178 117.376 9.86441 117.376 9.90704V25.8399C117.376 25.8399 117.419 25.9252 117.461 25.9252H119.774C119.774 25.9252 119.859 25.8826 119.859 25.8399V13.7331C119.859 13.6371 119.998 13.6265 120.03 13.7011L121.937 19.989L122.076 20.426C122.076 20.426 122.119 20.4792 122.161 20.4792H123.93C123.93 20.4792 124.005 20.4473 124.016 20.426L124.154 19.989L126.062 13.7011C126.094 13.6052 126.232 13.6371 126.232 13.7331V25.8399C126.232 25.8399 126.275 25.9252 126.318 25.9252H128.63C128.63 25.9252 128.716 25.8826 128.716 25.8399V9.90704C128.716 9.90704 128.673 9.82178 128.63 9.82178H125.113Z" fill="#161616"/>
<path d="M95.2936 9.82178H84.3697C84.3697 9.82178 84.2844 9.86441 84.2844 9.90704V11.9C84.2844 11.9 84.3271 11.9852 84.3697 11.9852H88.59V25.8506C88.59 25.8506 88.6327 25.9359 88.6753 25.9359H90.988C90.988 25.9359 91.0732 25.8932 91.0732 25.8506V11.9852H95.2936C95.2936 11.9852 95.3788 11.9426 95.3788 11.9V9.90704C95.3788 9.90704 95.3469 9.82178 95.2936 9.82178Z" fill="#161616"/>
<path d="M108.935 25.926H111.034C111.088 25.926 111.13 25.8727 111.12 25.8194L106.771 9.82257C106.771 9.82257 106.729 9.76929 106.686 9.76929H103.67C103.67 9.76929 103.596 9.80126 103.585 9.82257L99.2366 25.8194C99.226 25.8727 99.2686 25.926 99.3219 25.926H101.421C101.421 25.926 101.485 25.894 101.507 25.8727L102.764 21.2154C102.764 21.2154 102.807 21.1621 102.85 21.1621H107.507C107.507 21.1621 107.581 21.1941 107.592 21.2154L108.85 25.8727C108.85 25.8727 108.903 25.926 108.935 25.926ZM103.414 18.8814L105.098 12.6575C105.13 12.5722 105.237 12.5722 105.269 12.6575L106.953 18.8814C106.963 18.9347 106.921 18.988 106.867 18.988H103.489C103.436 18.988 103.393 18.9347 103.404 18.8814H103.414Z" fill="#161616"/>
<path d="M144.819 25.926H146.918C146.972 25.926 147.014 25.8727 147.004 25.8194L142.655 9.82257C142.655 9.82257 142.613 9.76929 142.57 9.76929H139.554C139.554 9.76929 139.479 9.80126 139.469 9.82257L135.121 25.8194C135.11 25.8727 135.153 25.926 135.206 25.926H137.305C137.305 25.926 137.38 25.894 137.391 25.8727L138.648 21.2154C138.648 21.2154 138.691 21.1621 138.733 21.1621H143.391C143.391 21.1621 143.465 21.1941 143.476 21.2154L144.734 25.8727C144.734 25.8727 144.776 25.926 144.819 25.926ZM139.298 18.8814L140.993 12.6575C141.025 12.5722 141.131 12.5722 141.163 12.6575L142.858 18.8814C142.869 18.9347 142.826 18.988 142.773 18.988H139.394C139.341 18.988 139.298 18.9347 139.309 18.8814H139.298Z" fill="#161616"/>
<path d="M70.9519 23.5595V18.6144C70.9519 18.6144 70.9946 18.5291 71.0372 18.5291H77.1972C77.1972 18.5291 77.2825 18.4865 77.2825 18.4439V16.4509C77.2825 16.4509 77.2398 16.3657 77.1972 16.3657H71.0372C71.0372 16.3657 70.9519 16.323 70.9519 16.2804V12.0601C70.9519 12.0601 70.9946 11.9748 71.0372 11.9748H78.0391C78.0391 11.9748 78.1244 11.9322 78.1244 11.8895V9.8966C78.1244 9.8966 78.0818 9.81134 78.0391 9.81134H68.554C68.554 9.81134 68.4688 9.85397 68.4688 9.8966V25.8188C68.4688 25.8188 68.5114 25.9041 68.554 25.9041H78.3269C78.3269 25.9041 78.4122 25.8615 78.4122 25.8188V23.7193C78.4122 23.7193 78.3695 23.6341 78.3269 23.6341H71.0159C71.0159 23.6341 70.9519 23.5914 70.9519 23.5382V23.5595Z" fill="#161616"/>
<path d="M181.651 25.7869L173.647 17.538C173.647 17.538 173.615 17.4527 173.647 17.4314L180.852 9.97119C180.905 9.9179 180.862 9.83264 180.798 9.83264H177.846C177.846 9.83264 177.804 9.8433 177.793 9.86461L171.686 16.1845C171.633 16.2378 171.548 16.1951 171.548 16.1312V9.9179C171.548 9.9179 171.505 9.83264 171.462 9.83264H169.15C169.15 9.83264 169.064 9.87527 169.064 9.9179V25.8508C169.064 25.8508 169.107 25.9361 169.15 25.9361H171.462C171.462 25.9361 171.548 25.8934 171.548 25.8508V18.8382C171.548 18.7742 171.644 18.7316 171.686 18.7849L178.603 25.9147C178.603 25.9147 178.646 25.9467 178.656 25.9467H181.608C181.662 25.9361 181.704 25.8401 181.651 25.7975V25.7869Z" fill="#161616"/>
<path d="M34.4392 1.24298L20.4459 11.602L23.0463 5.49531L34.4392 1.24298Z" fill="#E17726" stroke="#E17726" stroke-width="0.581081" stroke-linecap="round" stroke-linejoin="round"/>
<path d="M2.15808 1.24298L16.0341 11.6979L13.5509 5.49531L2.15808 1.24298Z" fill="#E27625" stroke="#E27625" stroke-width="0.581081" stroke-linecap="round" stroke-linejoin="round"/>
<path d="M29.3985 25.2648L25.6791 30.9559L33.6509 33.1513L35.9316 25.3927L29.3985 25.2648Z" fill="#E27625" stroke="#E27625" stroke-width="0.581081" stroke-linecap="round" stroke-linejoin="round"/>
<path d="M0.676636 25.3927L2.94667 33.1513L10.9078 30.9559L7.199 25.2648L0.676636 25.3927Z" fill="#E27625" stroke="#E27625" stroke-width="0.581081" stroke-linecap="round" stroke-linejoin="round"/>
<path d="M10.4815 15.6517L8.26477 18.9981L16.1513 19.3605L15.8849 10.8665L10.4709 15.6623L10.4815 15.6517Z" fill="#E27625" stroke="#E27625" stroke-width="0.581081" stroke-linecap="round" stroke-linejoin="round"/>
<path d="M26.1263 15.6515L20.6271 10.7597L20.4459 19.3496L28.3324 18.9873L26.1157 15.6408L26.1263 15.6515Z" fill="#E27625" stroke="#E27625" stroke-width="0.581081" stroke-linecap="round" stroke-linejoin="round"/>
<path d="M10.9077 30.9558L15.6823 28.6538L11.5685 25.4459L10.9077 30.9558Z" fill="#E27625" stroke="#E27625" stroke-width="0.581081" stroke-linecap="round" stroke-linejoin="round"/>
<path d="M20.915 28.6434L25.6789 30.9455L25.0288 25.4355L20.915 28.6434Z" fill="#E27625" stroke="#E27625" stroke-width="0.581081" stroke-linecap="round" stroke-linejoin="round"/>
<path d="M25.6789 30.9559L20.915 28.6539L21.2987 31.7446L21.2561 33.0555L25.6683 30.9559H25.6789Z" fill="#D5BFB2" stroke="#D5BFB2" stroke-width="0.581081" stroke-linecap="round" stroke-linejoin="round"/>
<path d="M10.9077 30.9559L15.3412 33.0555L15.3092 31.7446L15.6823 28.6539L10.9077 30.9559Z" fill="#D5BFB2" stroke="#D5BFB2" stroke-width="0.581081" stroke-linecap="round" stroke-linejoin="round"/>
<path d="M15.4159 23.3998L11.4513 22.2381L14.2435 20.9485L15.4052 23.3891L15.4159 23.3998Z" fill="#233447" stroke="#233447" stroke-width="0.581081" stroke-linecap="round" stroke-linejoin="round"/>
<path d="M21.1818 23.4L22.3434 20.9595L25.157 22.249L21.1818 23.4107V23.4Z" fill="#233447" stroke="#233447" stroke-width="0.581081" stroke-linecap="round" stroke-linejoin="round"/>
<path d="M10.9076 30.9559L11.6004 25.2648L7.19885 25.3927L10.9076 30.9559Z" fill="#CC6228" stroke="#CC6228" stroke-width="0.581081" stroke-linecap="round" stroke-linejoin="round"/>
<path d="M24.9971 25.2648L25.6791 30.9559L29.3986 25.3927L24.9971 25.2648Z" fill="#CC6228" stroke="#CC6228" stroke-width="0.581081" stroke-linecap="round" stroke-linejoin="round"/>
<path d="M28.3324 18.9982L20.4459 19.3605L21.1813 23.4104L22.3429 20.9698L25.1565 22.2594L28.3431 19.0088L28.3324 18.9982Z" fill="#CC6228" stroke="#CC6228" stroke-width="0.581081" stroke-linecap="round" stroke-linejoin="round"/>
<path d="M11.462 22.238L14.2543 20.9484L15.4159 23.389L16.1513 19.3392L8.26477 18.9768L11.462 22.2273V22.238Z" fill="#CC6228" stroke="#CC6228" stroke-width="0.581081" stroke-linecap="round" stroke-linejoin="round"/>
<path d="M8.26477 18.9983L11.5686 25.4461L11.462 22.2382L8.26477 18.9877V18.9983Z" fill="#E27525" stroke="#E27525" stroke-width="0.581081" stroke-linecap="round" stroke-linejoin="round"/>
<path d="M25.1567 22.238L25.0288 25.4459L28.3326 18.9982L25.146 22.2487L25.1567 22.238Z" fill="#E27525" stroke="#E27525" stroke-width="0.581081" stroke-linecap="round" stroke-linejoin="round"/>
<path d="M16.1514 19.35L15.416 23.3998L16.3432 28.1744L16.5457 21.8758L16.1407 19.35H16.1514Z" fill="#E27525" stroke="#E27525" stroke-width="0.581081" stroke-linecap="round" stroke-linejoin="round"/>
<path d="M20.4459 19.35L20.0623 21.8651L20.2541 28.1744L21.1813 23.3998L20.4459 19.35Z" fill="#E27525" stroke="#E27525" stroke-width="0.581081" stroke-linecap="round" stroke-linejoin="round"/>
<path d="M21.1817 23.3998L20.2545 28.1743L20.9153 28.6433L25.0291 25.4354L25.1569 22.2275L21.1817 23.3891V23.3998Z" fill="#F5841F" stroke="#F5841F" stroke-width="0.581081" stroke-linecap="round" stroke-linejoin="round"/>
<path d="M11.462 22.2379L11.5685 25.4457L15.6823 28.6536L16.3431 28.1847L15.4159 23.4102L11.4513 22.2485L11.462 22.2379Z" fill="#F5841F" stroke="#F5841F" stroke-width="0.581081" stroke-linecap="round" stroke-linejoin="round"/>
<path d="M21.2666 33.0552L21.3092 31.7443L20.9469 31.4353H15.6608L15.3197 31.7443L15.3517 33.0552L10.9182 30.9557L12.4742 32.2239L15.6182 34.3874H21.0002L24.1548 32.2239L25.6895 30.9557L21.2773 33.0552H21.2666Z" fill="#C0AC9D" stroke="#C0AC9D" stroke-width="0.581081" stroke-linecap="round" stroke-linejoin="round"/>
<path d="M20.9152 28.6429L20.2545 28.174H16.3538L15.6931 28.6429L15.3201 31.7335L15.6611 31.4245H20.9472L21.3096 31.7335L20.9259 28.6429H20.9152Z" fill="#161616" stroke="#161616" stroke-width="0.581081" stroke-linecap="round" stroke-linejoin="round"/>
<path d="M35.0362 12.2839L36.2085 6.57146L34.4394 1.25339L20.915 11.2607L26.1159 15.6516L33.4695 17.7938L35.0895 15.8967L34.3861 15.3852L35.5051 14.3621L34.6418 13.7013L35.7609 12.8487L35.0255 12.2839H35.0362Z" fill="#763E1A" stroke="#763E1A" stroke-width="0.581081" stroke-linecap="round" stroke-linejoin="round"/>
<path d="M0.378174 6.56105L1.57181 12.2735L0.81513 12.8383L1.95548 13.6909L1.09222 14.3517L2.21126 15.3748L1.50786 15.8863L3.1278 17.7834L10.4814 15.6412L15.6823 11.2503L2.15797 1.24298L0.378174 6.56105Z" fill="#763E1A" stroke="#763E1A" stroke-width="0.581081" stroke-linecap="round" stroke-linejoin="round"/>
<path d="M33.4695 17.7938L26.1159 15.6517L28.3326 18.9981L25.0288 25.4459L29.409 25.3926H35.942L33.4802 17.7938H33.4695Z" fill="#F5841F" stroke="#F5841F" stroke-width="0.581081" stroke-linecap="round" stroke-linejoin="round"/>
<path d="M10.4815 15.6517L3.12785 17.7938L0.676636 25.3926H7.199L11.5792 25.4459L8.2754 18.9981L10.4922 15.6517H10.4815Z" fill="#F5841F" stroke="#F5841F" stroke-width="0.581081" stroke-linecap="round" stroke-linejoin="round"/>
<path d="M20.4464 19.3501L20.9153 11.2611L23.0468 5.5061H13.551L15.6825 11.2611L16.1514 19.3501L16.3326 21.8866V28.1745H20.2546V21.8866L20.4464 19.3501Z" fill="#F5841F" stroke="#F5841F" stroke-width="0.581081" stroke-linecap="round" stroke-linejoin="round"/>
</svg>
