<svg width="180" height="35" viewBox="0 0 180 35" fill="none" xmlns="http://www.w3.org/2000/svg">
<g clip-path="url(#clip0_1_219)">
<mask id="mask0_1_219" style="mask-type:luminance" maskUnits="userSpaceOnUse" x="0" y="0" width="180" height="35">
<path d="M179.93 1.52588e-05H0.0269775V34.8649H179.93V1.52588e-05Z" fill="white"/>
</mask>
<g mask="url(#mask0_1_219)">
<path fill-rule="evenodd" clip-rule="evenodd" d="M71.0149 27.2713C64.3671 32.2267 54.7276 34.8629 46.4271 34.8629C34.7958 34.8629 24.3203 30.5198 16.392 23.2885C15.7703 22.7196 16.3238 21.9458 17.0722 22.3849C25.6241 27.4131 36.201 30.441 47.1248 30.441C54.4938 30.441 62.5936 28.8956 70.0483 25.7022C71.1728 25.2219 72.1161 26.4504 71.0149 27.2713Z" fill="#F79C34"/>
<path fill-rule="evenodd" clip-rule="evenodd" d="M73.7827 24.0799C72.931 22.9794 68.162 23.5582 66.0181 23.8181C65.3691 23.8969 65.2678 23.3239 65.8525 22.9085C69.6588 20.2074 75.8954 20.987 76.6184 21.8927C77.3473 22.8042 76.4255 29.12 72.8609 32.1342C72.3113 32.5968 71.7889 32.3507 72.0326 31.7384C72.8355 29.7126 74.6325 25.1805 73.7808 24.0799H73.7827Z" fill="#F79C34"/>
<path fill-rule="evenodd" clip-rule="evenodd" d="M66.1701 3.83232V1.20992C66.172 0.810262 66.4702 0.544479 66.8288 0.546447H78.4698C78.8421 0.546447 79.1422 0.818137 79.1422 1.20795V3.45825C79.1383 3.83625 78.8226 4.32845 78.2652 5.11004L72.2352 13.8081C74.4726 13.7549 76.8405 14.0935 78.8752 15.2492C79.3332 15.5091 79.4579 15.8949 79.493 16.2729V19.0725C79.493 19.4584 79.076 19.9053 78.6355 19.673C75.0533 17.7771 70.2979 17.5704 66.3357 19.6966C65.9304 19.9152 65.5074 19.4742 65.5074 19.0883V16.4265C65.5074 16.0013 65.5152 15.2728 65.9401 14.6231L72.9251 4.49776H66.8425C66.4702 4.49776 66.172 4.23001 66.1701 3.83625V3.83232ZM23.7066 20.2203H20.1654C19.8282 20.1987 19.5592 19.9427 19.532 19.6159L19.5359 1.25323C19.5359 0.887044 19.8418 0.593698 20.2199 0.593698H23.5175C23.8625 0.609448 24.1393 0.873262 24.1607 1.20992V3.60591H24.2289C25.0884 1.2867 26.708 0.205851 28.8888 0.205851C31.0697 0.205851 32.4924 1.28867 33.4844 3.60591C34.3439 1.2867 36.2948 0.205851 38.3763 0.205851C39.8652 0.205851 41.4829 0.824043 42.4749 2.21596C43.5994 3.76144 43.3694 6.0019 43.3694 7.97263L43.3655 19.5608C43.3655 19.927 43.0615 20.2203 42.6834 20.2203H39.1461C38.7894 20.1967 38.5107 19.9132 38.5107 19.5608V9.82721C38.5107 9.05545 38.575 7.12409 38.4094 6.38974C38.1463 5.15139 37.3531 4.80489 36.3279 4.80489C35.4684 4.80489 34.5758 5.3837 34.2114 6.31099C33.8469 7.24025 33.882 8.78376 33.882 9.82721V19.5608C33.882 19.927 33.576 20.2203 33.1999 20.2203H29.6625C29.3059 20.1967 29.0272 19.9132 29.0272 19.5608L29.0233 9.82721C29.0233 7.77969 29.3546 4.76748 26.8424 4.76748C24.3302 4.76748 24.3965 7.70291 24.3965 9.82721V19.5608C24.3946 19.927 24.0886 20.2203 23.7124 20.2203H23.7066ZM89.1929 3.95438C86.5813 3.95438 86.4157 7.54738 86.4157 9.78783C86.4157 12.0283 86.3825 16.8203 89.1598 16.8203C91.937 16.8203 92.0364 12.9556 92.0364 10.599C92.0364 9.05348 91.9682 7.19891 91.5063 5.73021C91.1107 4.45445 90.3155 3.95241 89.1909 3.95241L89.1929 3.95438ZM89.1617 0.205851C94.418 0.205851 97.2596 4.76748 97.2596 10.5616C97.2596 16.3556 94.1198 20.6062 89.1617 20.6062C84.2036 20.6062 81.1945 16.0465 81.1945 10.3666C81.1945 4.68676 84.036 0.205851 89.1617 0.205851ZM104.077 20.2203H100.547C100.195 20.1967 99.9121 19.9132 99.9121 19.5608L99.9062 1.1922C99.9374 0.855544 100.23 0.593698 100.586 0.593698H103.87C104.18 0.609448 104.436 0.822075 104.5 1.10558V3.915H104.566C105.558 1.40286 106.946 0.205851 109.392 0.205851C110.978 0.205851 112.533 0.784668 113.525 2.36952C114.451 3.83822 114.451 6.30902 114.451 8.08682V19.6415C114.412 19.9663 114.124 20.2183 113.773 20.2183H110.224C109.896 20.1987 109.631 19.9545 109.592 19.6415V9.67167C109.592 7.66156 109.824 4.72417 107.378 4.72417C106.519 4.72417 105.726 5.30298 105.328 6.19287C104.831 7.31309 104.765 8.43332 104.765 9.67167V19.5588C104.759 19.925 104.453 20.2183 104.075 20.2183L104.077 20.2203ZM60.4577 20.175C60.2239 20.3877 59.8867 20.4014 59.6216 20.2577C58.4464 19.2694 58.234 18.8146 57.5908 17.8736C55.6478 19.8738 54.2699 20.4743 51.7518 20.4743C48.7699 20.4743 46.4507 18.6158 46.4507 14.8987C46.4507 11.9948 48.0099 10.0201 50.2278 9.05151C52.1494 8.19904 54.8331 8.04547 56.8873 7.81119V7.34656C56.8873 6.49212 56.9535 5.48805 56.4566 4.75173C56.0259 4.09219 55.1975 3.82247 54.4686 3.82247C53.118 3.82247 51.9175 4.52138 51.6213 5.9704C51.5589 6.29327 51.327 6.61221 51.0073 6.62993L47.5733 6.2539C47.2829 6.18696 46.9613 5.95268 47.0451 5.50577C47.8267 1.35758 51.4946 0.0640999 54.8273 0.0306309H55.0904C56.7957 0.0522873 58.9746 0.524791 60.3018 1.81039C62.0247 3.43659 61.859 5.60617 61.859 7.96869V13.5423C61.859 15.2197 62.5489 15.954 63.196 16.8577C63.424 17.1845 63.4727 17.5704 63.1843 17.8086C62.4612 18.4209 61.1749 19.549 60.4694 20.1849L60.4597 20.177L60.4577 20.175ZM56.8892 11.4534C56.8892 12.8473 56.9224 14.0089 56.2266 15.2492C55.6633 16.2552 54.7688 16.8754 53.7748 16.8754C52.4164 16.8754 51.6232 15.83 51.6232 14.2806C51.6232 11.2329 54.3283 10.6797 56.8912 10.6797V11.4554L56.8892 11.4534ZM14.034 20.175C13.8001 20.3877 13.461 20.4014 13.1979 20.2577C12.0208 19.2694 11.8103 18.8146 11.1671 17.8736C9.22207 19.8738 7.84612 20.4743 5.32809 20.4743C2.34622 20.4743 0.0269775 18.6158 0.0269775 14.8987C0.0269775 11.9948 1.58418 10.0201 3.80402 9.05151C5.72568 8.19904 8.40937 8.04547 10.4616 7.81119V7.34656C10.4616 6.49212 10.5298 5.48805 10.0309 4.75173C9.60017 4.09219 8.77187 3.82247 8.04296 3.82247C6.69235 3.82247 5.48985 4.52138 5.19556 5.9704C5.13515 6.29327 4.90127 6.61221 4.5797 6.62993L1.14762 6.2539C0.857226 6.18696 0.535651 5.95268 0.619455 5.50577C1.39903 1.35758 5.06693 0.0640999 8.40157 0.0306309H8.66468C10.37 0.0522873 12.5489 0.524791 13.8761 1.81039C15.599 3.43659 15.4333 5.60617 15.4333 7.96869V13.5423C15.4333 15.2197 16.1233 15.954 16.7703 16.8577C16.9964 17.1845 17.0471 17.5704 16.7586 17.8086C16.0356 18.4209 14.7493 19.549 14.0418 20.1849L14.034 20.177V20.175ZM10.4635 11.4534C10.4635 12.8473 10.4967 14.0089 9.80091 15.2492C9.23767 16.2552 8.3431 16.8754 7.34914 16.8754C5.99073 16.8754 5.19751 15.83 5.19751 14.2806C5.19751 11.2329 7.90264 10.6797 10.4655 10.6797V11.4554L10.4635 11.4534ZM162.867 26.8078V25.4592C162.867 25.0753 163.054 24.8115 163.449 24.8351C164.19 24.9414 165.237 25.0477 165.979 24.8922C166.95 24.6874 167.645 23.9925 168.057 23.0416C168.637 21.7008 169.021 20.62 169.263 19.9112L161.896 1.47374C161.771 1.1607 161.734 0.579916 162.354 0.579916H164.929C165.42 0.579916 165.621 0.894919 165.73 1.20402L171.072 16.1804L176.17 1.20402C176.273 0.896888 176.484 0.579916 176.971 0.579916H179.4C180.013 0.579916 179.98 1.15873 179.858 1.47374L172.549 20.4861C171.604 23.016 170.343 27.048 167.505 27.7469C166.082 28.1229 164.287 27.9871 163.233 27.5402C162.968 27.4043 162.865 27.0441 162.865 26.8078H162.867ZM159.431 19.0981C159.431 19.4407 159.152 19.7222 158.811 19.7222H156.995C156.603 19.7222 156.334 19.4368 156.285 19.0981L156.102 17.8499C155.268 18.5626 154.243 19.1907 153.132 19.6277C150.996 20.4664 148.532 20.6042 146.445 19.3088C144.936 18.3736 144.133 16.5427 144.133 14.6566C144.133 13.1958 144.58 11.7487 145.566 10.6974C146.883 9.2602 148.793 8.55538 151.101 8.55538C152.494 8.55538 154.488 8.72076 155.938 9.19917V6.68506C155.938 4.1296 154.874 3.02315 152.066 3.02315C149.92 3.02315 148.277 3.34997 145.993 4.06857C145.626 4.08038 145.412 3.80082 145.412 3.45628V2.02302C145.412 1.67849 145.702 1.34577 146.018 1.24536C147.649 0.52676 149.961 0.07985 152.418 -0.00283813C155.622 -0.00283813 159.429 0.727574 159.429 5.70461V19.0962L159.431 19.0981ZM155.94 15.4283V11.6365C154.722 11.2998 152.705 11.1601 151.923 11.1601C150.69 11.1601 149.339 11.4554 148.634 12.2212C148.107 12.7843 147.868 13.5915 147.868 14.3711C147.868 15.3791 148.213 16.393 149.019 16.8931C149.957 17.5369 151.411 17.4581 152.779 17.0664C154.093 16.6903 155.326 16.0229 155.938 15.4303L155.94 15.4283ZM132.652 3.08222C136.683 3.08222 137.78 6.28343 137.78 9.94927C137.803 12.4201 137.353 14.6231 136.086 15.8851C135.139 16.8301 134.079 17.086 132.485 17.086C131.066 17.086 129.201 16.3379 127.805 15.2984V4.8167C129.257 3.69057 131.109 3.08222 132.652 3.08222ZM127.187 27.4654H124.755C124.414 27.4654 124.137 27.1838 124.137 26.8413V1.23552C124.137 0.89295 124.416 0.611417 124.755 0.611417H126.616C127.008 0.611417 127.275 0.896888 127.326 1.23552L127.521 2.57624C129.265 1.01304 131.51 0.00897446 133.648 0.00897446C139.639 0.00897446 141.61 4.99586 141.61 10.1816C141.61 15.7296 138.597 20.1888 133.498 20.1888C131.352 20.1888 129.345 19.3895 127.801 17.9996V26.8413C127.801 27.1838 127.523 27.4654 127.184 27.4654H127.187Z" fill="#333E47"/>
</g>
</g>
<defs>
<clipPath id="clip0_1_219">
<rect width="179.903" height="34.8649" fill="white" transform="translate(0.0269775 1.52588e-05)"/>
</clipPath>
</defs>
</svg>
