<svg width="178" height="31" viewBox="0 0 178 31" fill="none" xmlns="http://www.w3.org/2000/svg">
<path d="M8.14931 1.13728H0.0268555V29.5852H8.14931C12.4298 29.5852 15.5806 28.5501 18.2892 26.2871C21.5382 23.5819 23.4574 19.5435 23.4574 15.3612C23.4083 6.99316 17.1559 1.13728 8.14931 1.13728ZM14.6473 22.4977C12.9245 24.0731 10.6615 24.7608 7.06865 24.7608H5.59152V5.96163H7.06865C10.6615 5.96163 12.8263 6.6002 14.6473 8.27381C16.5665 9.99654 17.6998 12.6034 17.6998 15.3612C17.6998 18.0699 16.5665 20.775 14.6473 22.4977Z" fill="#231F20"/>
<path d="M31.5238 1.13728H25.9626V29.5852H31.5238V1.13728Z" fill="#231F20"/>
<path d="M45.06 12.0666C41.7128 10.8351 40.7795 10.0001 40.7795 8.47381C40.7795 6.70196 42.5022 5.32307 44.9126 5.32307C46.5862 5.32307 47.916 6.01076 49.3896 7.63525L52.2948 3.84594C49.9335 1.77937 47.0774 0.695206 43.9267 0.695206C38.9059 0.695206 35.0674 4.18979 35.0674 8.81765C35.0674 12.7543 36.8393 14.7227 42.0566 16.5928C44.2214 17.3787 45.3547 17.8734 45.895 18.2172C47.0283 18.9541 47.5686 19.9891 47.5686 21.1715C47.5686 23.4837 45.7477 25.1573 43.2881 25.1573C40.6321 25.1573 38.5129 23.8275 37.2358 21.368L33.6429 24.8134C36.2007 28.5536 39.2532 30.2272 43.4846 30.2272C49.2423 30.2272 53.2772 26.3888 53.2772 20.8768C53.2772 16.3998 51.4071 14.3788 45.0565 12.0666H45.06Z" fill="#231F20"/>
<path d="M55.0035 15.3612C55.0035 23.7293 61.5506 30.1746 70.0134 30.1746C72.3747 30.1746 74.4413 29.6834 76.9534 28.501V21.9539C74.7395 24.1679 72.7712 25.0555 70.259 25.0555C64.6978 25.0555 60.7121 21.0206 60.7121 15.263C60.7121 9.50534 64.7961 5.51955 70.0134 5.51955C72.6694 5.51955 74.6413 6.45635 76.9534 8.71941V2.17233C74.543 0.940807 72.5256 0.4496 70.1116 0.4496C61.7436 0.498721 55.0035 7.09492 55.0035 15.3612Z" fill="#231F20"/>
<path d="M120.902 20.2347L113.324 1.13728H107.271L119.376 30.3255H122.33L134.635 1.13728H128.632L120.902 20.2347Z" fill="#231F20"/>
<path d="M137.144 29.5852H152.845V24.7643H142.656V17.0839H152.452V12.2631H142.656V5.96163H152.845V1.13728H137.144V29.5852Z" fill="#231F20"/>
<path d="M174.795 9.55446C174.795 4.2389 171.153 1.13728 164.753 1.13728H156.532V29.5852H162.094V18.1681H162.83L170.507 29.5852H177.349L168.391 17.6243C172.476 16.7401 174.791 13.8841 174.791 9.55446H174.795ZM163.672 14.2314H162.048V5.61779H163.771C167.216 5.61779 169.086 7.04579 169.086 9.84918C169.086 12.6526 167.216 14.2279 163.672 14.2279V14.2314Z" fill="#231F20"/>
<path d="M93.8824 30.5676C102.226 30.5676 108.991 23.8034 108.991 15.4595C108.991 7.11549 102.226 0.351364 93.8824 0.351364C85.5384 0.351364 78.7743 7.11549 78.7743 15.4595C78.7743 23.8034 85.5384 30.5676 93.8824 30.5676Z" fill="url(#paint0_linear_1_151)"/>
<path opacity="0.65" d="M93.8824 30.5676C102.226 30.5676 108.991 23.8034 108.991 15.4595C108.991 7.11549 102.226 0.351364 93.8824 0.351364C85.5384 0.351364 78.7743 7.11549 78.7743 15.4595C78.7743 23.8034 85.5384 30.5676 93.8824 30.5676Z" fill="url(#paint1_linear_1_151)"/>
<defs>
<linearGradient id="paint0_linear_1_151" x1="101.626" y1="27.5853" x2="91.1562" y2="11.1895" gradientUnits="userSpaceOnUse">
<stop stop-color="#F89F20"/>
<stop offset="0.25" stop-color="#F79A20"/>
<stop offset="0.53" stop-color="#F68D20"/>
<stop offset="0.62" stop-color="#F58720"/>
<stop offset="0.72" stop-color="#F48120"/>
<stop offset="1" stop-color="#F37521"/>
</linearGradient>
<linearGradient id="paint1_linear_1_151" x1="99.9734" y1="27.3607" x2="84.6688" y2="-2.55026" gradientUnits="userSpaceOnUse">
<stop stop-color="#F58720"/>
<stop offset="0.36" stop-color="#E16F27"/>
<stop offset="0.7" stop-color="#D4602C"/>
<stop offset="0.98" stop-color="#D05B2E"/>
</linearGradient>
</defs>
</svg>
